name Walk5.mot
datacolumns 19
datarows 17
range 2.67500000 2.75500000
endheader

                time	   L_ground_force_vx	   L_ground_force_vy	   L_ground_force_vz	   L_ground_force_px	   L_ground_force_py	   L_ground_force_pz	   R_ground_force_vx	   R_ground_force_vy	   R_ground_force_vz	   R_ground_force_px	   R_ground_force_py	   R_ground_force_pz	   L_ground_torque_x	   L_ground_torque_y	   L_ground_torque_z	   R_ground_torque_x	   R_ground_torque_y	   R_ground_torque_z	
          2.67500000	         30.77943819	        960.74441302	         66.16700113	         -0.23142203	          0.00000000	         -0.04039216	         -0.04226138	          0.33955579	          0.03096684	          0.00025230	          0.00000000	          0.00011624	          0.00000000	         -1.99418705	          0.00000000	          0.00000000	          0.00702486	          0.00000000	
          2.68000000	         33.90034808	        963.30682764	         66.70945940	         -0.22993662	          0.00000000	         -0.04063702	         -0.05412258	          0.45499836	          0.03913013	          0.00030555	          0.00000000	          0.00014088	          0.00000000	         -1.91680947	          0.00000000	          0.00000000	          0.00903449	          0.00000000	
          2.68500000	         37.03137569	        965.73897022	         67.27140962	         -0.22841052	          0.00000000	         -0.04089403	         -0.06594386	          0.57890308	          0.04703395	          0.00035090	          0.00000000	          0.00016192	          0.00000000	         -1.83667008	          0.00000000	          0.00000000	          0.01105404	          0.00000000	
          2.69000000	         40.14862563	        968.03746035	         67.85015105	         -0.22684151	          0.00000000	         -0.04116508	         -0.07624500	          0.70072258	          0.05355841	          0.00037835	          0.00000000	          0.00017477	          0.00000000	         -1.75540528	          0.00000000	          0.00000000	          0.01284003	          0.00000000	
          2.69500000	         43.22751935	        970.19168941	         68.44029645	         -0.22522605	          0.00000000	         -0.04145144	         -0.08290523	          0.80426666	          0.05712725	          0.00037448	          0.00000000	          0.00017324	          0.00000000	         -1.67539815	          0.00000000	          0.00000000	          0.01404152	          0.00000000	
          2.70000000	         46.24221225	        972.18819064	         69.03322573	         -0.22355831	          0.00000000	         -0.04175370	         -0.08306653	          0.86654255	          0.05564705	          0.00032227	          0.00000000	          0.00014950	          0.00000000	         -1.59929723	          0.00000000	          0.00000000	          0.01418338	          0.00000000	
          2.70500000	         49.16555105	        974.01500069	         69.61702427	         -0.22183021	          0.00000000	         -0.04207181	         -0.07307361	          0.85678527	          0.04647600	          0.00020111	          0.00000000	          0.00009405	          0.00000000	         -1.52966803	          0.00000000	          0.00000000	          0.01265539	          0.00000000	
          2.71000000	         51.96956872	        975.66268870	         70.17776175	         -0.22003195	          0.00000000	         -0.04240564	         -0.04847883	          0.73590429	          0.02644305	         -0.00001263	          0.00000000	         -0.00000403	          0.00000000	         -1.46843873	          0.00000000	          0.00000000	          0.00871192	          0.00000000	
          2.71500000	         54.62546322	        977.12812482	         70.70120586	         -0.21815321	          0.00000000	         -0.04275530	         -0.00414743	          0.45664728	         -0.00805709	         -0.00034437	          0.00000000	         -0.00015648	          0.00000000	         -1.41643625	          0.00000000	          0.00000000	          0.00148811	          0.00000000	
          2.72000000	         57.10566709	        978.41642410	         71.17378319	         -0.21618407	          0.00000000	         -0.04312082	          0.06549356	         -0.03513788	         -0.06086224	         -0.00081922	          0.00000000	         -0.00037490	          0.00000000	         -1.37371826	          0.00000000	          0.00000000	         -0.00996007	          0.00000000	
          2.72500000	         59.38678704	        979.54597946	         71.58450450	         -0.21411620	          0.00000000	         -0.04350305	          0.16601310	         -0.79768418	         -0.13569950	         -0.00145865	          0.00000000	         -0.00066926	          0.00000000	         -1.33948174	          0.00000000	          0.00000000	         -0.02658377	          0.00000000	
          2.73000000	         61.45218801	        980.55325169	         71.92680632	         -0.21194459	          0.00000000	         -0.04390270	          0.30228715	         -1.88840655	         -0.23566364	         -0.00227587	          0.00000000	         -0.00104575	          0.00000000	         -1.31253551	          0.00000000	          0.00000000	         -0.04922790	          0.00000000	
          2.73500000	         63.29506921	        981.49507731	         72.20084295	         -0.20966855	          0.00000000	         -0.04431881	          0.47750965	         -3.35636334	         -0.36248175	         -0.00326954	          0.00000000	         -0.00150386	          0.00000000	         -1.29168683	          0.00000000	          0.00000000	         -0.07846753	          0.00000000	
          2.74000000	         64.92068352	        982.45388203	         72.41572140	         -0.20729256	          0.00000000	         -0.04474879	          0.69185772	         -5.23153152	         -0.51553517	         -0.00441584	          0.00000000	         -0.00203277	          0.00000000	         -1.27512816	          0.00000000	          0.00000000	         -0.11438596	          0.00000000	
          2.74500000	         66.34777577	        983.53646426	         72.59000148	         -0.20482669	          0.00000000	         -0.04518800	          0.94078226	         -7.51043600	         -0.69062359	         -0.00565875	          0.00000000	         -0.00260684	          0.00000000	         -1.26058135	          0.00000000	          0.00000000	         -0.15628943	          0.00000000	
          2.75000000	         67.60964158	        984.86673756	         72.75023338	         -0.20228601	          0.00000000	         -0.04563018	          1.21292527	        -10.13786574	         -0.87847965	         -0.00689904	          0.00000000	         -0.00318054	          0.00000000	         -1.24517491	          0.00000000	          0.00000000	         -0.20235797	          0.00000000	
          2.75500000	         68.75277793	        986.57822372	         72.92790755	         -0.19969091	          0.00000000	         -0.04606842	          1.48771181	        -12.98474286	         -1.06307737	         -0.00798227	          0.00000000	         -0.00368290	          0.00000000	         -1.22541884	          0.00000000	          0.00000000	         -0.24923991	          0.00000000	
